inDegrees=no
num_controls=7
num_derivatives=13
num_iterations=105
num_multipliers=7
num_parameters=0
num_slacks=7
num_states=26
objective=0.543564
objective_accelerations=0.060577
objective_balance=0.003266
objective_effort=0.047283
objective_height=0.422670
objective_ligament=0.009768
solver_duration=1139.189381
status=Solve_Succeeded
success=true
DataType=double
version=3
OpenSimVersion=4.5
endheader
time	/jointset/ground_pelvis/pelvis_tilt/value	/jointset/ground_pelvis/pelvis_tx/value	/jointset/ground_pelvis/pelvis_ty/value	/jointset/hip_r/hip_flexion_r/value	/jointset/hip_r/hip_adduction_r/value	/jointset/hip_r/hip_rotation_r/value	/jointset/back/lumbar_extension/value	/jointset/patellofemoral_r/patellar_flexion_r/value	/jointset/knee_r/knee_flexion_r/value	/jointset/knee_r/knee_adduction_r/value	/jointset/knee_r/knee_rotation_r/value	/jointset/ankle_r/ankle_angle_r/value	/jointset/subtalar_r/subtalar_angle_r/value	/jointset/ground_pelvis/pelvis_tilt/speed	/jointset/ground_pelvis/pelvis_tx/speed	/jointset/ground_pelvis/pelvis_ty/speed	/jointset/hip_r/hip_flexion_r/speed	/jointset/hip_r/hip_adduction_r/speed	/jointset/hip_r/hip_rotation_r/speed	/jointset/back/lumbar_extension/speed	/jointset/patellofemoral_r/patellar_flexion_r/speed	/jointset/knee_r/knee_flexion_r/speed	/jointset/knee_r/knee_adduction_r/speed	/jointset/knee_r/knee_rotation_r/speed	/jointset/ankle_r/ankle_angle_r/speed	/jointset/subtalar_r/subtalar_angle_r/speed	/forceset/tau_hip_flexion_r	/forceset/tau_hip_adduction_r	/forceset/tau_hip_rotation_r	/forceset/tau_knee_flexion_r	/forceset/tau_ankle_angle_r	/forceset/tau_subtalar_angle_r	/forceset/tau_lumbar_extension	lambda_cid13_p0	lambda_cid14_p0	lambda_cid14_p1	lambda_cid14_p2	lambda_cid14_p3	lambda_cid14_p4	lambda_cid14_p5	/jointset/ground_pelvis/pelvis_tilt/accel	/jointset/ground_pelvis/pelvis_tx/accel	/jointset/ground_pelvis/pelvis_ty/accel	/jointset/hip_r/hip_flexion_r/accel	/jointset/hip_r/hip_adduction_r/accel	/jointset/hip_r/hip_rotation_r/accel	/jointset/back/lumbar_extension/accel	/jointset/patellofemoral_r/patellar_flexion_r/accel	/jointset/knee_r/knee_flexion_r/accel	/jointset/knee_r/knee_adduction_r/accel	/jointset/knee_r/knee_rotation_r/accel	/jointset/ankle_r/ankle_angle_r/accel	/jointset/subtalar_r/subtalar_angle_r/accel	gamma_cid13_p0	gamma_cid14_p0	gamma_cid14_p1	gamma_cid14_p2	gamma_cid14_p3	gamma_cid14_p4	gamma_cid14_p5
1	-0.3301001560464741	-0.01605325772705207	0.6173385882223423	1.600486221523161	-0.2449026382841878	0.06874747561523852	-0.4363285392931074	1.506606607648421	1.50660660764838	0.02935637999973779	0.1745305336256341	0.4363173233439014	0.08587085579794587	-0.002092183079681037	0.002034293415823762	0.01632256748725952	-0.04039014183557187	-0.0008751395217533692	-0.01464943997922072	-0.000213386538133889	-0.04837077527968558	-0.04837077527968524	-0.0009422366656045491	2.681030577210185e-05	-0.007951792626196413	-0.004014704057540773	-0.3096027283870081	0.01546472723124552	0.01770533226569339	-0.533782258637447	0.01526809985392746	-0.006044341660664429	0.3185624624874457	-0.04266919253785196	-46.21614356514925	-12.42793742512093	4.395429826452339	20.0765938152297	-819.672427141795	56.27013771055216	1.257244591690284	0.01563097926947747	2.06390357523033	-6.059392763071358	-0.113083451327042	-1.483832384568044	-0.01395603868308432	-5.828067459532837	-5.828067459532796	0.1907107476862118	0.01023139829837561	-1.299548943254751	-0.6258248956272443	1.290933413903403e-09	-8.65289022604804e-10	1.321526013338153e-08	1.015323762768573e-08	1.304829834238835e-09	-3.707480381333692e-09	1.83928398254459e-08
1.01	-0.330058795436487	-0.01603211756179473	0.6176048898812124	1.59978009091103	-0.2449168461271918	0.06852761446455541	-0.4363306211092041	1.505831615017143	1.505831615017177	0.02935700729669993	0.1745307893776047	0.4361728302982369	0.08579974466991051	0.01036589997119854	0.00219799270838926	0.03693738471270348	-0.1008405231111835	-0.001963164259967942	-0.02932078755705696	-0.0001959315814457032	-0.1066385345250928	-0.1066385345250888	0.001068231379799566	2.280100547407608e-05	-0.02095446482298188	-0.01020302545235265	-0.3095255982779804	0.01552496673824306	0.01772065893549723	-0.5336431323930668	0.01543861963249753	-0.006083216651443476	0.3185444213350359	-0.0426831533933044	-46.156720615845	-12.43659180798425	4.399294509590291	19.9807597282698	-819.6219111464343	56.22014696697005	1.240329656350474	0.01737713065668966	2.060212457886945	-6.038542059741244	-0.1061688297943585	-1.458486078447006	0.01065302793458917	-5.827748146315051	-5.827748146314513	0.2062969128607822	-0.005941729683588808	-1.301774983540468	-0.6146540721474325	2.274464569030831e-09	-5.144252136098028e-10	3.020958690220466e-08	2.039452552805883e-08	-1.147864081089618e-09	-6.978021808554922e-09	4.03674666894952e-08
1.02	-0.3298928060970782	-0.01600921285833041	0.618077328044674	1.598469320236155	-0.2449418355865226	0.06816109981128082	-0.4363323129985824	1.504473621195558	1.504473621195667	0.02937775569009472	0.1745309601094749	0.4358980808054744	0.08566688666577928	0.02283356280462479	0.002387201057220953	0.05754986840556305	-0.1613181543842034	-0.003031462787210055	-0.04398014049711739	-0.0001362060211642309	-0.1649710133413158	-0.1649710133413078	0.003081982620934678	9.806285589075711e-06	-0.03400308204576818	-0.01636407927673614	-0.3094484681689577	0.01558520624523781	0.01773598560530676	-0.533504006148687	0.0156091394110673	-0.006122091642227489	0.3185263801826212	-0.04270525050906707	-46.10602581545184	-12.44405501845388	4.399863087301254	19.91539103209901	-819.7078830185364	56.17213582980343	1.259160548199612	0.02073279052272437	2.063436868713453	-6.064842762553035	-0.1091382091325518	-1.481433457012884	-0.005501917964300261	-5.841011373696001	-5.841011373695883	0.1913673868324114	0.008434314380983033	-1.308737948454902	-0.6203713815415655	2.877292008592937e-09	5.736555034694086e-11	4.595015832014659e-08	3.061092702067547e-08	-4.103135155362725e-09	-8.663472715330295e-09	5.842016361479319e-08
1.03	-0.3296023425222485	-0.01598417136665362	0.6187557401711282	1.596554049154914	-0.2449773965573384	0.06764814933723744	-0.4363322265301348	1.502532250639263	1.502532250639298	0.02941866517646973	0.1745309831694597	0.4354927448150855	0.08547264115818355	0.03523503165935282	0.002637107750908847	0.07811823261841548	-0.2216989536979978	-0.004076292215917018	-0.05859903889050086	0.0002600871672185065	-0.2232869028116496	-0.2232869028116437	0.00510060882388431	-3.654258688086647e-06	-0.04705879429510441	-0.02247206230131617	-0.3096683502162464	0.01563515298624322	0.0177691017184263	-0.5327049327541544	0.01555847725709474	-0.006099223737054968	0.3188629622601382	-0.04272780680629441	-46.10043432900478	-12.41945445486029	4.380303798293625	19.7258663682479	-819.5606108224858	56.10988629199163	1.227022273055344	0.02951974908097116	2.051385480880426	-6.019132147905002	-0.1014823297476079	-1.45048231076976	0.07806233124025312	-5.824449166680814	-5.824449166681198	0.2072185024635025	-0.005992852137130021	-1.30319216555706	-0.6040530266331996	3.476234716363559e-09	6.314106709869688e-10	6.167793631614075e-08	4.082707457035582e-08	-7.063534567992413e-09	-1.033274922903988e-08	7.643284084683859e-08
1.04	-0.329188587815082	-0.01595615077998212	0.6196394057963728	1.594036083354113	-0.2450232712264424	0.06698933702320514	-0.4363249996268361	1.500008206901669	1.50000820690163	0.02947978257796191	0.1745309203013411	0.4349570108417264	0.08521770756759874	0.04749178927191823	0.002983020056164435	0.09860056816363359	-0.2818570982962875	-0.005094202444938202	-0.07315250849463185	0.001291076115627298	-0.2815056496011336	-0.28150564960113	0.007123565644324384	-7.379335167020919e-06	-0.0600826786398037	-0.02850169587457589	-0.3098882322635397	0.01568509972724849	0.01780221783155007	-0.5319058593596222	0.01550781510312262	-0.006076355831882651	0.3191995443376507	-0.04275858880832175	-46.103684477362	-12.39371835173784	4.3574981229556	19.56626237892874	-819.5516344505397	56.05019306451595	1.230218299767084	0.03993391283627089	2.046231135186593	-6.020311819452077	-0.1037543691953989	-1.468347699162395	0.1214372340408397	-5.821582837526029	-5.821582837525944	0.1922335103305007	0.010381407940635	-1.302372367527503	-0.6047014912775022	4.141531593172284e-09	1.183215343774131e-09	7.634422516322545e-08	5.033377352183894e-08	-9.747264771057815e-09	-1.231858585360304e-08	9.368291533711947e-08
1.05	-0.328653078813357	-0.01592410538035483	0.6207273582835311	1.590917884642737	-0.2450791515497398	0.06618542474962738	-0.4363037689538786	1.496902659238081	1.496902659238043	0.0295611521766585	0.1745308330538734	0.4342912704827331	0.0849029784636344	0.05957494179110552	0.0034507059418019	0.1189647841794977	-0.3417202684029162	-0.006073667283924719	-0.08760771295297688	0.003115630117328854	-0.3395679550737559	-0.3395679550737529	0.009152105419375363	-1.190042168390198e-05	-0.07305262786124114	-0.03442055092304415	-0.3101430883842092	0.01571146522286536	0.01785613932101299	-0.530619350800756	0.01544676202753697	-0.006019172942448406	0.3196403893852214	-0.04279317596219212	-46.08349551007253	-12.33829231351264	4.317756583292732	19.28351594827265	-819.2334364045895	55.98712140482595	1.192103680650865	0.0538803258335621	2.02774218849015	-5.959963112938818	-0.09380283060092498	-1.430774267858687	0.2370502294916821	-5.793166164226712	-5.793166164226844	0.2084331829871465	-0.006125290763745064	-1.292395049942745	-0.5819197225863524	4.808902037763448e-09	1.734325002565893e-09	9.097734247440673e-08	5.981830220462839e-08	-1.242234906132433e-08	-1.431431498163036e-08	1.109091584917202e-07
